<mxfile host="65bd71144e">
    <diagram id="-ArhwDwvfJbKTsrsHUny" name="Page-1">
        <mxGraphModel dx="1221" dy="557" grid="1" gridSize="12" guides="1" tooltips="1" connect="1" arrows="1" fold="1" page="1" pageScale="1" pageWidth="1100" pageHeight="850" math="0" shadow="0">
            <root>
                <mxCell id="0"/>
                <mxCell id="1" parent="0"/>
                <mxCell id="2" value="" style="endArrow=none;html=1;" edge="1" parent="1">
                    <mxGeometry width="50" height="50" relative="1" as="geometry">
                        <mxPoint x="48" y="336" as="sourcePoint"/>
                        <mxPoint x="1056" y="336" as="targetPoint"/>
                    </mxGeometry>
                </mxCell>
                <mxCell id="3" value="" style="endArrow=none;html=1;" edge="1" parent="1">
                    <mxGeometry width="50" height="50" relative="1" as="geometry">
                        <mxPoint x="48" y="192.00363636363633" as="sourcePoint"/>
                        <mxPoint x="1056" y="192" as="targetPoint"/>
                    </mxGeometry>
                </mxCell>
                <mxCell id="4" value="" style="endArrow=none;html=1;" edge="1" parent="1">
                    <mxGeometry width="50" height="50" relative="1" as="geometry">
                        <mxPoint x="48" y="336" as="sourcePoint"/>
                        <mxPoint x="48" y="192.00363636363633" as="targetPoint"/>
                    </mxGeometry>
                </mxCell>
                <mxCell id="5" value="" style="endArrow=none;html=1;" edge="1" parent="1">
                    <mxGeometry width="50" height="50" relative="1" as="geometry">
                        <mxPoint x="192" y="336" as="sourcePoint"/>
                        <mxPoint x="191.9985714285714" y="192.00363636363633" as="targetPoint"/>
                    </mxGeometry>
                </mxCell>
                <mxCell id="6" value="" style="endArrow=none;html=1;" edge="1" parent="1">
                    <mxGeometry width="50" height="50" relative="1" as="geometry">
                        <mxPoint x="336" y="336" as="sourcePoint"/>
                        <mxPoint x="335.78714285714284" y="192.00363636363633" as="targetPoint"/>
                    </mxGeometry>
                </mxCell>
                <mxCell id="7" value="" style="endArrow=none;html=1;" edge="1" parent="1">
                    <mxGeometry width="50" height="50" relative="1" as="geometry">
                        <mxPoint x="480" y="336" as="sourcePoint"/>
                        <mxPoint x="480.2857142857142" y="192.00363636363633" as="targetPoint"/>
                    </mxGeometry>
                </mxCell>
                <mxCell id="8" value="" style="endArrow=none;html=1;" edge="1" parent="1">
                    <mxGeometry width="50" height="50" relative="1" as="geometry">
                        <mxPoint x="624" y="336" as="sourcePoint"/>
                        <mxPoint x="624.0042857142856" y="192.00363636363633" as="targetPoint"/>
                    </mxGeometry>
                </mxCell>
                <mxCell id="9" value="" style="endArrow=none;html=1;" edge="1" parent="1">
                    <mxGeometry width="50" height="50" relative="1" as="geometry">
                        <mxPoint x="768" y="336" as="sourcePoint"/>
                        <mxPoint x="768.002857142857" y="192.00363636363633" as="targetPoint"/>
                    </mxGeometry>
                </mxCell>
                <mxCell id="10" value="" style="endArrow=none;html=1;" edge="1" parent="1">
                    <mxGeometry width="50" height="50" relative="1" as="geometry">
                        <mxPoint x="912" y="336" as="sourcePoint"/>
                        <mxPoint x="912.0014285714284" y="192.00363636363633" as="targetPoint"/>
                    </mxGeometry>
                </mxCell>
                <mxCell id="11" value="" style="endArrow=none;html=1;" edge="1" parent="1">
                    <mxGeometry width="50" height="50" relative="1" as="geometry">
                        <mxPoint x="1056" y="336" as="sourcePoint"/>
                        <mxPoint x="1055.9999999999998" y="192.00363636363633" as="targetPoint"/>
                    </mxGeometry>
                </mxCell>
                <mxCell id="12" value="Sun" style="text;html=1;strokeColor=none;fillColor=none;align=center;verticalAlign=middle;whiteSpace=wrap;rounded=0;" vertex="1" parent="1">
                    <mxGeometry x="224.67" y="144" width="96" height="48" as="geometry"/>
                </mxCell>
                <mxCell id="13" value="Mon" style="text;html=1;strokeColor=none;fillColor=none;align=center;verticalAlign=middle;whiteSpace=wrap;rounded=0;" vertex="1" parent="1">
                    <mxGeometry x="368.66999999999996" y="144" width="99.64" height="48" as="geometry"/>
                </mxCell>
                <mxCell id="14" value="Tues" style="text;html=1;strokeColor=none;fillColor=none;align=center;verticalAlign=middle;whiteSpace=wrap;rounded=0;" vertex="1" parent="1">
                    <mxGeometry x="512.67" y="144" width="96.21" height="48" as="geometry"/>
                </mxCell>
                <mxCell id="15" value="Weds" style="text;html=1;strokeColor=none;fillColor=none;align=center;verticalAlign=middle;whiteSpace=wrap;rounded=0;" vertex="1" parent="1">
                    <mxGeometry x="657.67" y="144" width="92.79" height="48" as="geometry"/>
                </mxCell>
                <mxCell id="16" value="Thurs" style="text;html=1;strokeColor=none;fillColor=none;align=center;verticalAlign=middle;whiteSpace=wrap;rounded=0;" vertex="1" parent="1">
                    <mxGeometry x="800.67" y="144" width="89.36" height="48" as="geometry"/>
                </mxCell>
                <mxCell id="17" value="Fri" style="text;html=1;strokeColor=none;fillColor=none;align=center;verticalAlign=middle;whiteSpace=wrap;rounded=0;" vertex="1" parent="1">
                    <mxGeometry x="944.67" y="144" width="97.93" height="48" as="geometry"/>
                </mxCell>
                <mxCell id="18" value="Sat" style="text;html=1;strokeColor=none;fillColor=none;align=center;verticalAlign=middle;whiteSpace=wrap;rounded=0;" vertex="1" parent="1">
                    <mxGeometry x="72" y="144" width="94.5" height="48" as="geometry"/>
                </mxCell>
                <mxCell id="21" value="LARGE + DARK BARRELS" style="rounded=0;whiteSpace=wrap;html=1;fillColor=#a20025;fontColor=#ffffff;strokeColor=#6F0000;fontSize=9;" vertex="1" parent="1">
                    <mxGeometry x="289.82" y="204" width="132" height="12" as="geometry"/>
                </mxCell>
                <mxCell id="23" value="0" style="text;html=1;strokeColor=none;fillColor=none;align=center;verticalAlign=middle;whiteSpace=wrap;rounded=0;fontSize=3;" vertex="1" parent="1">
                    <mxGeometry x="48" y="186" width="12" height="6" as="geometry"/>
                </mxCell>
                <mxCell id="24" value="6" style="text;html=1;strokeColor=none;fillColor=none;align=center;verticalAlign=middle;whiteSpace=wrap;rounded=0;fontSize=3;" vertex="1" parent="1">
                    <mxGeometry x="120" y="186" width="12" height="6" as="geometry"/>
                </mxCell>
                <mxCell id="25" value="11" style="text;html=1;strokeColor=none;fillColor=none;align=center;verticalAlign=middle;whiteSpace=wrap;rounded=0;fontSize=3;" vertex="1" parent="1">
                    <mxGeometry x="180" y="186" width="12" height="6" as="geometry"/>
                </mxCell>
                <mxCell id="26" value="0" style="text;html=1;strokeColor=none;fillColor=none;align=center;verticalAlign=middle;whiteSpace=wrap;rounded=0;fontSize=3;" vertex="1" parent="1">
                    <mxGeometry x="193.82" y="186" width="12" height="6" as="geometry"/>
                </mxCell>
                <mxCell id="27" value="6" style="text;html=1;strokeColor=none;fillColor=none;align=center;verticalAlign=middle;whiteSpace=wrap;rounded=0;fontSize=3;" vertex="1" parent="1">
                    <mxGeometry x="265.82" y="186" width="12" height="6" as="geometry"/>
                </mxCell>
                <mxCell id="28" value="11" style="text;html=1;strokeColor=none;fillColor=none;align=center;verticalAlign=middle;whiteSpace=wrap;rounded=0;fontSize=3;" vertex="1" parent="1">
                    <mxGeometry x="325.82" y="186" width="12" height="6" as="geometry"/>
                </mxCell>
                <mxCell id="29" value="0" style="text;html=1;strokeColor=none;fillColor=none;align=center;verticalAlign=middle;whiteSpace=wrap;rounded=0;fontSize=3;" vertex="1" parent="1">
                    <mxGeometry x="337.82" y="186" width="12" height="6" as="geometry"/>
                </mxCell>
                <mxCell id="30" value="6" style="text;html=1;strokeColor=none;fillColor=none;align=center;verticalAlign=middle;whiteSpace=wrap;rounded=0;fontSize=3;" vertex="1" parent="1">
                    <mxGeometry x="409.82" y="186" width="12" height="6" as="geometry"/>
                </mxCell>
                <mxCell id="31" value="11" style="text;html=1;strokeColor=none;fillColor=none;align=center;verticalAlign=middle;whiteSpace=wrap;rounded=0;fontSize=3;" vertex="1" parent="1">
                    <mxGeometry x="469.82" y="186" width="12" height="6" as="geometry"/>
                </mxCell>
                <mxCell id="32" value="0" style="text;html=1;strokeColor=none;fillColor=none;align=center;verticalAlign=middle;whiteSpace=wrap;rounded=0;fontSize=3;" vertex="1" parent="1">
                    <mxGeometry x="483.64" y="186" width="12" height="6" as="geometry"/>
                </mxCell>
                <mxCell id="33" value="6" style="text;html=1;strokeColor=none;fillColor=none;align=center;verticalAlign=middle;whiteSpace=wrap;rounded=0;fontSize=3;" vertex="1" parent="1">
                    <mxGeometry x="555.64" y="186" width="12" height="6" as="geometry"/>
                </mxCell>
                <mxCell id="34" value="11" style="text;html=1;strokeColor=none;fillColor=none;align=center;verticalAlign=middle;whiteSpace=wrap;rounded=0;fontSize=3;" vertex="1" parent="1">
                    <mxGeometry x="615.64" y="186" width="12" height="6" as="geometry"/>
                </mxCell>
                <mxCell id="35" value="0" style="text;html=1;strokeColor=none;fillColor=none;align=center;verticalAlign=middle;whiteSpace=wrap;rounded=0;fontSize=3;" vertex="1" parent="1">
                    <mxGeometry x="627.64" y="186" width="12" height="6" as="geometry"/>
                </mxCell>
                <mxCell id="36" value="6" style="text;html=1;strokeColor=none;fillColor=none;align=center;verticalAlign=middle;whiteSpace=wrap;rounded=0;fontSize=3;" vertex="1" parent="1">
                    <mxGeometry x="699.64" y="186" width="12" height="6" as="geometry"/>
                </mxCell>
                <mxCell id="37" value="11" style="text;html=1;strokeColor=none;fillColor=none;align=center;verticalAlign=middle;whiteSpace=wrap;rounded=0;fontSize=3;" vertex="1" parent="1">
                    <mxGeometry x="756" y="186" width="12" height="6" as="geometry"/>
                </mxCell>
                <mxCell id="38" value="0" style="text;html=1;strokeColor=none;fillColor=none;align=center;verticalAlign=middle;whiteSpace=wrap;rounded=0;fontSize=3;" vertex="1" parent="1">
                    <mxGeometry x="768" y="186" width="12" height="6" as="geometry"/>
                </mxCell>
                <mxCell id="39" value="6" style="text;html=1;strokeColor=none;fillColor=none;align=center;verticalAlign=middle;whiteSpace=wrap;rounded=0;fontSize=3;" vertex="1" parent="1">
                    <mxGeometry x="840" y="186" width="12" height="6" as="geometry"/>
                </mxCell>
                <mxCell id="40" value="11" style="text;html=1;strokeColor=none;fillColor=none;align=center;verticalAlign=middle;whiteSpace=wrap;rounded=0;fontSize=3;" vertex="1" parent="1">
                    <mxGeometry x="905.46" y="186" width="12" height="6" as="geometry"/>
                </mxCell>
                <mxCell id="41" value="0" style="text;html=1;strokeColor=none;fillColor=none;align=center;verticalAlign=middle;whiteSpace=wrap;rounded=0;fontSize=3;" vertex="1" parent="1">
                    <mxGeometry x="917.46" y="186" width="12" height="6" as="geometry"/>
                </mxCell>
                <mxCell id="42" value="6" style="text;html=1;strokeColor=none;fillColor=none;align=center;verticalAlign=middle;whiteSpace=wrap;rounded=0;fontSize=3;" vertex="1" parent="1">
                    <mxGeometry x="989.46" y="186" width="12" height="6" as="geometry"/>
                </mxCell>
                <mxCell id="43" value="11" style="text;html=1;strokeColor=none;fillColor=none;align=center;verticalAlign=middle;whiteSpace=wrap;rounded=0;fontSize=3;" vertex="1" parent="1">
                    <mxGeometry x="1049.46" y="186" width="12" height="6" as="geometry"/>
                </mxCell>
                <mxCell id="49" value="MEDIUM BARRELS" style="rounded=0;whiteSpace=wrap;html=1;fillColor=#008a00;fontColor=#ffffff;strokeColor=#005700;fontSize=9;" vertex="1" parent="1">
                    <mxGeometry x="145.82" y="216" width="706.18" height="12" as="geometry"/>
                </mxCell>
            </root>
        </mxGraphModel>
    </diagram>
</mxfile>